<svg id="Layer_1" data-name="Layer 1" xmlns="http://www.w3.org/2000/svg" viewBox="0 0 1200 416"><defs><style>.cls-1{fill:#f26705;}.cls-2{fill:#b91b0c;}.cls-3{fill:#fff;}</style></defs><path class="cls-1" d="M1141,102.62v44.24H1039.28V325.42a66.78,66.78,0,0,1-66.72,63.92H928.31V146.86H787.36l-39.05-111h328.77A66.78,66.78,0,0,1,1141,102.62Z"/><path class="cls-1" d="M535.9,36.51,500,138.5H175V97.84a61.39,61.39,0,0,1,58.75-61.33Z"/><path class="cls-1" d="M457.52,287.35l-35.89,102H228a61.4,61.4,0,0,1-53-60.82V287.35Z"/><rect class="cls-1" x="174.97" y="161.46" width="236.27" height="101.99"/><polygon class="cls-1" points="832 389.34 730.1 389.34 642.45 122.45 555.53 389.34 453.62 389.34 568.74 35.89 715.94 35.89 832 389.34"/><path class="cls-2" d="M59,35.89h0a102,102,0,0,1,102,102V288.12a102,102,0,0,1-102,102h0Z"/><path class="cls-3" d="M128,338.87l-38.7,8.9V336.63l14.36-2.24c4.48-.69,9.64-1.37,13.6-1.95v-.11c-4.36-.64-9-1.44-13.72-2.3l-14.24-2.47V316.48l14.93-2.41c4.42-.69,8.38-1.21,12.81-1.72v-.12c-4.37-.57-9-1.26-13.5-2L89.29,308v-10.5L128,307v11.31l-15.16,2.58c-3.38.58-7,1.09-11.59,1.61v.11c4.59.64,8.21,1.15,11.65,1.84l15.1,2.93Z"/><path class="cls-3" d="M89.29,278.36h14.3V265.78H89.29V255.39H128v10.39H112.66v12.58H128v10.39H89.29Z"/><path class="cls-3" d="M119,233.8l9,2.18v10.74l-38.7-11.2V221.68L128,210.15v11.19l-9,2.47Zm-7.63-8.55-7,1.77c-2.18.58-5.4,1.33-7.63,2v.11c2.23.57,5.45,1.15,7.63,1.67l7,1.66Z"/><path class="cls-3" d="M98,198.31v9.88H89.29V177.88H98v10h30v10.39Z"/><path class="cls-3" d="M98,147.79v9.87H89.29V127.35H98V137.4h30v10.39Z"/><path class="cls-3" d="M108.24,83.6c12.46,0,20.38,7.46,20.38,19.4s-9,18.6-19.75,18.6c-11.31,0-20.26-7.34-20.26-19.23C88.61,89.91,97.85,83.6,108.24,83.6Zm.4,27c7.29,0,11.77-3.16,11.77-8.15s-4.88-7.93-11.88-7.93c-6.66,0-11.71,3-11.71,8C96.82,107.48,101.52,110.64,108.64,110.64Z"/></svg>